<svg width="40" height="44" viewBox="0 0 40 44" fill="none" xmlns="http://www.w3.org/2000/svg">
<path d="M20.9766 43.3361V24.8758C20.9766 24.3616 21.5507 24.0432 22.0036 24.3062L37.8341 33.4996C38.2758 33.7561 38.2769 34.3796 37.8362 34.6376L22.0056 43.9045C21.5528 44.1696 20.9766 43.8514 20.9766 43.3361Z" fill="white"/>
<path d="M6.28993 15.0662L1.02453 12.0366C0.571625 11.776 0 12.0945 0 12.6075V31.0263C0 31.5336 0.560309 31.8529 1.01321 31.6036L6.2786 28.7057C6.49213 28.5882 6.6242 28.3676 6.6242 28.1284V15.6371C6.6242 15.4025 6.49707 15.1853 6.28993 15.0662Z" fill="white"/>
<path d="M19.1513 6.5098V0.663842C19.1513 0.153578 18.5851 -0.165338 18.1322 0.0897942L1.77178 9.30534C1.32145 9.559 1.31821 10.192 1.76592 10.4501L6.96866 13.4487C7.18093 13.5711 7.44448 13.5716 7.65728 13.4502L18.8149 7.08195C19.0233 6.96305 19.1513 6.74526 19.1513 6.5098Z" fill="white"/>
<path d="M21.0616 6.5098V0.663842C21.0616 0.153578 21.6277 -0.165338 22.0807 0.0897942L38.4411 9.30534C38.8914 9.559 38.8946 10.192 38.4469 10.4501L33.2442 13.4487C33.0319 13.5711 32.7684 13.5716 32.5556 13.4502L21.3979 7.08195C21.1896 6.96305 21.0616 6.74526 21.0616 6.5098Z" fill="white"/>
<path d="M33.7101 15.0662L38.9755 12.0366C39.4284 11.776 40 12.0945 40 12.6075V31.0263C40 31.5336 39.4397 31.8529 38.9868 31.6036L33.7214 28.7057C33.5079 28.5882 33.3758 28.3676 33.3758 28.1284V15.6371C33.3758 15.4025 33.5029 15.1853 33.7101 15.0662Z" fill="white"/>
<path d="M19.1083 43.3361V24.8758C19.1083 24.3616 18.5342 24.0432 18.0814 24.3062L2.25078 33.4996C1.80915 33.7561 1.80803 34.3796 2.24873 34.6376L18.0793 43.9045C18.5322 44.1696 19.1083 43.8514 19.1083 43.3361Z" fill="white"/>
</svg>
